Coordinates
version=1
nRows=9
nColumns=36
inDegrees=yes

Units are S.I. units (second, meters, Newtons, ...)
If the header above contains a line with 'inDegrees', this indicates whether rotational values are in degrees (yes) or radians (no).

endheader
time	pelvis_tilt	pelvis_list	pelvis_rotation	pelvis_tx	pelvis_ty	pelvis_tz	hip_flexion_r	hip_adduction_r	hip_rotation_r	knee_angle_r	knee_angle_r_beta	ankle_angle_r	subtalar_angle_r	mtp_angle_r	hip_flexion_l	hip_adduction_l	hip_rotation_l	knee_angle_l	knee_angle_l_beta	ankle_angle_l	subtalar_angle_l	mtp_angle_l	lumbar_extension	lumbar_bending	lumbar_rotation	arm_flex_r	arm_add_r	arm_rot_r	elbow_flex_r	pro_sup_r	arm_flex_l	arm_add_l	arm_rot_l	elbow_flex_l	pro_sup_l
     45.66666670	     -3.48634769	     -0.48385766	     -1.43420896	      1.07523236	      0.92152086	      0.69233666	     26.43950364	     -0.86804009	      3.88750970	     50.58889695	      0.88294282	      3.36438064	    -16.67739424	     -7.49999987	      8.12304570	      0.22708875	      1.42587154	     20.05597755	      0.35004284	     13.64831060	     -5.55915868	     -7.49999987	    -11.13418742	     -0.71499312	      3.51224489	      7.93862808	    -12.48555798	     11.76727619	     20.17666539	     87.00452818	      9.67080025	     -9.19932072	      2.26216636	     19.58821261	     81.90068884
     45.68333330	     -3.48538892	     -0.71026855	     -1.82336233	      1.07326023	      0.92156982	      0.69143634	     27.11298316	     -0.94500475	      3.56512848	     46.10504803	      0.80468489	      4.06707915	    -15.96745351	     -7.49999987	      7.12508752	     -0.06337574	      1.34600270	     19.84456323	      0.34635297	     14.17077690	     -5.40733414	     -7.49999987	    -11.64797682	     -0.31104082	      3.20606841	      8.11846570	    -12.62997034	     11.18375456	     20.15506067	     86.00649906	     10.00047095	     -9.55360311	      2.40914053	     20.62751155	     81.00323648
     45.70000000	     -3.90634311	     -0.73602210	     -2.34858258	      1.07048710	      0.91869339	      0.69131054	     28.28976230	     -1.14458259	      3.55222192	     41.57310482	      0.72558756	      4.33374543	    -15.34749184	     -7.49999987	      6.76760982	     -0.12930728	      1.26269434	     19.86159818	      0.34665028	     14.62266122	     -5.75786440	     -7.49999987	    -11.61143800	     -0.14601577	      3.13844446	      8.09451530	    -12.88679608	     11.05326411	     20.35176637	     86.06440505	     10.40266054	     -9.87377305	      2.37505609	     21.25777167	     81.04813826
     45.71666670	     -4.30229195	     -0.82223755	     -2.80640003	      1.06808204	      0.91414410	      0.69212647	     29.39150467	     -1.33024881	      3.48457675	     36.94983633	      0.64489630	      4.59568978	    -14.28785078	     -7.49999987	      6.52537188	     -0.23401974	      1.27791962	     20.02618829	      0.34952292	     15.43346006	     -6.02499687	     -7.49999987	    -11.69992514	      0.10249923	      3.05831815	      8.13005462	    -13.11383983	     10.81534430	     20.64690633	     86.10200221	     10.85818677	    -10.22401818	      2.31177893	     22.20884717	     81.09568322
     45.73333330	     -4.69118139	     -0.80505078	     -3.17829039	      1.06697837	      0.91074824	      0.69310925	     30.41131660	     -1.62272670	      3.42500694	     32.24834778	      0.56283985	      5.06887200	    -12.75636972	     -7.49999987	      6.24115052	     -0.24342230	      1.37923678	     20.04844851	      0.34991144	     16.38634984	     -6.13389431	     -7.49999987	    -11.75095181	      0.19445564	      2.83208745	      8.18318590	    -13.25389540	     10.43931553	     21.05867875	     86.17498565	     11.32551592	    -10.72436685	      2.16021703	     23.40457559	     81.18595633
     45.75000000	     -4.76932854	     -0.74581676	     -3.46783838	      1.06708765	      0.91102146	      0.69355728	     30.82102955	     -2.01507465	      3.14925569	     27.31518777	      0.47673996	      5.95615765	    -10.12196886	     -7.49999987	      5.39845275	     -0.23005329	      1.49590058	     19.69249126	      0.34369881	     17.37421579	     -5.90610672	     -7.49999987	    -12.11510221	      0.30753026	      2.17489213	      8.38947113	    -13.05654731	      8.46030869	     21.60983853	     87.11279249	     11.19746394	    -11.21361752	      0.75203092	     25.72343655	     81.94959233
     45.76666670	     -4.99119037	     -0.58570387	     -3.73583975	      1.06783593	      0.91328306	      0.69430989	     31.11957183	     -2.39925880	      2.92138938	     22.34840840	      0.39005331	      7.12020945	     -7.19283117	     -7.49999987	      4.53290916	     -0.13185223	      1.77474081	     19.14305506	      0.33410934	     17.91500437	     -5.91425189	     -7.49999987	    -12.01684325	      0.34008450	      1.50170319	      8.51346411	    -12.91507303	      6.81989624	     21.97845516	     90.92942756	     11.13165220	    -11.41024166	     -1.88280602	     27.32354461	     84.53912383
     45.78333330	     -4.99910588	     -0.53023530	     -3.91140149	      1.06896237	      0.91498274	      0.69608240	     30.88687927	     -2.59362487	      2.66817348	     17.53497929	      0.30604312	      8.46301484	     -3.92874231	     -7.49999987	      3.31375315	     -0.14998313	      2.11450375	     18.58752441	      0.32441350	     18.42429309	     -5.82146673	     -7.49999987	    -11.94703854	      0.51141393	      1.29818328	      8.39116986	    -12.98883674	      6.23947113	     21.95806988	     90.05314086	     11.53365038	    -11.66707597	     -1.91737615	     28.06022716	     84.03141535
     45.80000000	     -5.05508384	     -0.60414353	     -3.98725029	      1.06965371	      0.91471608	      0.69878977	     30.55328773	     -2.53465930	      2.58203407	     13.39882532	      0.23385362	     10.00560870	     -0.59414866	     -7.49999987	      2.17365338	     -0.28998672	      2.69020190	     18.20310875	      0.31770418	     18.75811442	     -6.12619988	     -7.49999987	    -11.75189949	      0.83048121	      1.04146024	      8.18629110	    -13.07433120	      5.84063343	     21.71840527	     88.97782251	     11.75772860	    -11.82387093	     -2.09987381	     28.54469939	     83.01859211
